<mxfile host="app.diagrams.net" modified="2021-08-31T15:27:20.492Z" agent="5.0 (X11)" etag="QDDxkGAGZOGw7vcayrNy" version="15.0.3" type="github">
  <diagram name="Page-1" id="c7558073-3199-34d8-9f00-42111426c3f3">
    <mxGraphModel dx="1069" dy="741" grid="1" gridSize="10" guides="1" tooltips="1" connect="1" arrows="1" fold="1" page="1" pageScale="1" pageWidth="826" pageHeight="1169" background="none" math="0" shadow="0">
      <root>
        <mxCell id="0" />
        <mxCell id="1" parent="0" />
        <mxCell id="3" value="Switch Ethernet" style="whiteSpace=wrap;align=center;verticalAlign=middle;fontStyle=1;strokeWidth=3;fillColor=#FFFFCC" parent="1" vertex="1">
          <mxGeometry x="489" y="360" width="90" height="60" as="geometry" />
        </mxCell>
        <mxCell id="5" value="PC portable avec carte GTX &#xa;(embarqué)" style="shape=process;whiteSpace=wrap;align=center;verticalAlign=middle;size=0.0475;fontStyle=1;strokeWidth=3;fillColor=#FFCCCC" parent="1" vertex="1">
          <mxGeometry x="199.99999999999991" y="491" width="400" height="50" as="geometry" />
        </mxCell>
        <mxCell id="6" value="&lt;p style=&quot;margin: 0px ; margin-top: 4px ; text-align: center ; text-decoration: underline&quot;&gt;&lt;strong&gt;Fonction 1&lt;br&gt;&lt;/strong&gt;&lt;/p&gt;&lt;hr&gt;&lt;p style=&quot;margin: 0px ; margin-left: 8px&quot;&gt;&lt;br&gt;&lt;/p&gt;&lt;p style=&quot;margin: 0px ; margin-left: 8px&quot; align=&quot;center&quot;&gt;LIDAR&lt;br&gt;&lt;/p&gt;" style="verticalAlign=middle;align=center;overflow=fill;fontSize=12;fontFamily=Helvetica;html=1;rounded=1;fontStyle=1;strokeWidth=3;fillColor=#E6FFCC" parent="1" vertex="1">
          <mxGeometry x="459" y="170" width="110" height="90" as="geometry" />
        </mxCell>
        <mxCell id="8" value="&lt;p style=&quot;margin: 0px ; margin-top: 4px ; text-align: center ; text-decoration: underline&quot;&gt;&lt;strong&gt;&lt;strong&gt;Fonction 2&lt;/strong&gt;&lt;br&gt;&lt;/strong&gt;&lt;/p&gt;&lt;hr&gt;&lt;div&gt;&lt;br&gt;&lt;/div&gt;&lt;div&gt;JETSON&lt;/div&gt;" style="verticalAlign=middle;align=center;overflow=fill;fontSize=12;fontFamily=Helvetica;html=1;rounded=1;fontStyle=1;strokeWidth=3;fillColor=#E6FFCC" parent="1" vertex="1">
          <mxGeometry x="615.5" y="170" width="110" height="90" as="geometry" />
        </mxCell>
        <mxCell id="10" value="&lt;p style=&quot;margin: 0px ; margin-top: 4px ; text-align: center ; text-decoration: underline&quot;&gt;&lt;strong&gt;&lt;strong&gt;Fonction 3&lt;/strong&gt;&lt;/strong&gt;&lt;/p&gt;&lt;hr&gt;&lt;div&gt;&lt;br&gt;&lt;/div&gt;&lt;div&gt;Radar&lt;/div&gt;" style="verticalAlign=middle;align=center;overflow=fill;fontSize=12;fontFamily=Helvetica;html=1;rounded=1;fontStyle=1;strokeWidth=3;fillColor=#E6FFCC" parent="1" vertex="1">
          <mxGeometry x="159.99999999999991" y="740" width="110" height="90" as="geometry" />
        </mxCell>
        <mxCell id="12" value="Hub&#xa; USB" style="whiteSpace=wrap;align=center;verticalAlign=middle;fontStyle=1;strokeWidth=3;fillColor=#FFFFCC" parent="1" vertex="1">
          <mxGeometry x="459" y="620" width="90" height="60" as="geometry" />
        </mxCell>
        <mxCell id="14" value="Adaptateur USB - CAN" style="whiteSpace=wrap;align=center;verticalAlign=middle;fontStyle=1;strokeWidth=3;fillColor=#FFFFCC" parent="1" vertex="1">
          <mxGeometry x="209.99999999999997" y="619.9999999999999" width="90" height="60" as="geometry" />
        </mxCell>
        <mxCell id="v6RUtA155Lo1I2qpHWUi-98" value="" style="edgeStyle=elbowEdgeStyle;elbow=horizontal;strokeColor=#990000;strokeWidth=2;entryX=0.5;entryY=0;entryDx=0;entryDy=0;" edge="1" parent="1" target="14">
          <mxGeometry width="100" height="100" relative="1" as="geometry">
            <mxPoint x="255" y="541" as="sourcePoint" />
            <mxPoint x="254.5" y="606" as="targetPoint" />
            <Array as="points">
              <mxPoint x="254.5" y="575" />
            </Array>
          </mxGeometry>
        </mxCell>
        <mxCell id="v6RUtA155Lo1I2qpHWUi-99" value="USB" style="text;whiteSpace=wrap;html=1;rotation=-90;" vertex="1" parent="1">
          <mxGeometry x="260" y="570" width="29" height="29" as="geometry" />
        </mxCell>
        <mxCell id="v6RUtA155Lo1I2qpHWUi-100" value="Adaptateur USB - CAN" style="whiteSpace=wrap;align=center;verticalAlign=middle;fontStyle=1;strokeWidth=3;fillColor=#FFFFCC" vertex="1" parent="1">
          <mxGeometry x="322" y="619.9999999999999" width="90" height="60" as="geometry" />
        </mxCell>
        <mxCell id="v6RUtA155Lo1I2qpHWUi-101" value="" style="edgeStyle=elbowEdgeStyle;elbow=horizontal;strokeColor=#990000;strokeWidth=2;entryX=0.5;entryY=0;entryDx=0;entryDy=0;" edge="1" parent="1" target="v6RUtA155Lo1I2qpHWUi-100">
          <mxGeometry width="100" height="100" relative="1" as="geometry">
            <mxPoint x="367" y="541" as="sourcePoint" />
            <mxPoint x="366.5" y="606" as="targetPoint" />
            <Array as="points">
              <mxPoint x="366.5" y="575" />
            </Array>
          </mxGeometry>
        </mxCell>
        <mxCell id="v6RUtA155Lo1I2qpHWUi-102" value="USB" style="text;whiteSpace=wrap;html=1;rotation=-90;" vertex="1" parent="1">
          <mxGeometry x="372" y="570" width="29" height="29" as="geometry" />
        </mxCell>
        <mxCell id="v6RUtA155Lo1I2qpHWUi-105" value="" style="strokeColor=#990000;strokeWidth=2;exitX=0.5;exitY=1;exitDx=0;exitDy=0;entryX=0.5;entryY=0;entryDx=0;entryDy=0;edgeStyle=orthogonalEdgeStyle;" edge="1" parent="1" source="14" target="10">
          <mxGeometry width="100" height="100" relative="1" as="geometry">
            <mxPoint x="269" y="700" as="sourcePoint" />
            <mxPoint x="312.5" y="922.5" as="targetPoint" />
          </mxGeometry>
        </mxCell>
        <mxCell id="v6RUtA155Lo1I2qpHWUi-106" value="&lt;p style=&quot;margin: 0px ; margin-top: 4px ; text-align: center ; text-decoration: underline&quot;&gt;&lt;strong&gt;&lt;strong&gt;Fonction 5&lt;/strong&gt;&lt;br&gt;&lt;/strong&gt;&lt;/p&gt;&lt;hr&gt;&lt;div&gt;Moteur&lt;/div&gt;&lt;div&gt;Direction&lt;/div&gt;&lt;div&gt;Frein&lt;/div&gt;&lt;div&gt;IMU&lt;/div&gt;&lt;div&gt;&lt;br&gt;&lt;/div&gt;" style="verticalAlign=middle;align=center;overflow=fill;fontSize=12;fontFamily=Helvetica;html=1;rounded=1;fontStyle=1;strokeWidth=3;fillColor=#E6FFCC" vertex="1" parent="1">
          <mxGeometry x="418.99999999999994" y="860" width="110" height="90" as="geometry" />
        </mxCell>
        <mxCell id="v6RUtA155Lo1I2qpHWUi-107" value="" style="edgeStyle=elbowEdgeStyle;elbow=horizontal;strokeColor=#990000;strokeWidth=2;entryX=0;entryY=0.5;entryDx=0;entryDy=0;" edge="1" parent="1" target="v6RUtA155Lo1I2qpHWUi-106">
          <mxGeometry width="100" height="100" relative="1" as="geometry">
            <mxPoint x="366.5" y="680" as="sourcePoint" />
            <mxPoint x="366.5" y="730" as="targetPoint" />
            <Array as="points">
              <mxPoint x="367" y="740" />
            </Array>
          </mxGeometry>
        </mxCell>
        <mxCell id="v6RUtA155Lo1I2qpHWUi-108" value="&lt;p style=&quot;margin: 0px ; margin-top: 4px ; text-align: center ; text-decoration: underline&quot;&gt;&lt;strong&gt;&lt;strong&gt;Fonction 4&lt;/strong&gt;&lt;br&gt;&lt;/strong&gt;&lt;/p&gt;&lt;hr&gt;&lt;div&gt;Contrôleur&lt;/div&gt;&lt;div&gt;Ultrason&lt;br&gt;&lt;/div&gt;" style="verticalAlign=middle;align=center;overflow=fill;fontSize=12;fontFamily=Helvetica;html=1;rounded=1;fontStyle=1;strokeWidth=3;fillColor=#E6FFCC" vertex="1" parent="1">
          <mxGeometry x="418.99999999999994" y="740" width="110" height="90" as="geometry" />
        </mxCell>
        <mxCell id="v6RUtA155Lo1I2qpHWUi-109" value="" style="edgeStyle=elbowEdgeStyle;elbow=horizontal;strokeColor=#990000;strokeWidth=2;exitX=0.5;exitY=1;exitDx=0;exitDy=0;entryX=0;entryY=0.5;entryDx=0;entryDy=0;" edge="1" parent="1" source="v6RUtA155Lo1I2qpHWUi-100" target="v6RUtA155Lo1I2qpHWUi-108">
          <mxGeometry width="100" height="100" relative="1" as="geometry">
            <mxPoint x="366.5" y="800" as="sourcePoint" />
            <mxPoint x="366.5" y="850" as="targetPoint" />
            <Array as="points">
              <mxPoint x="367" y="800" />
            </Array>
          </mxGeometry>
        </mxCell>
        <mxCell id="v6RUtA155Lo1I2qpHWUi-110" value="&lt;div align=&quot;center&quot;&gt;CAN&lt;br&gt;1&lt;/div&gt;&lt;div&gt;&lt;br&gt;&lt;/div&gt;" style="text;whiteSpace=wrap;html=1;rotation=-90;" vertex="1" parent="1">
          <mxGeometry x="260" y="690" width="29" height="29" as="geometry" />
        </mxCell>
        <mxCell id="v6RUtA155Lo1I2qpHWUi-111" value="&lt;div align=&quot;center&quot;&gt;CAN&lt;/div&gt;&lt;div align=&quot;center&quot;&gt;2&lt;br&gt;&lt;/div&gt;" style="text;whiteSpace=wrap;html=1;rotation=-90;" vertex="1" parent="1">
          <mxGeometry x="372" y="690" width="29" height="29" as="geometry" />
        </mxCell>
        <mxCell id="v6RUtA155Lo1I2qpHWUi-112" value="" style="edgeStyle=elbowEdgeStyle;elbow=horizontal;strokeColor=#990000;strokeWidth=2;entryX=0.5;entryY=0;entryDx=0;entryDy=0;" edge="1" parent="1" target="12">
          <mxGeometry width="100" height="100" relative="1" as="geometry">
            <mxPoint x="504" y="542" as="sourcePoint" />
            <mxPoint x="504" y="620" as="targetPoint" />
            <Array as="points">
              <mxPoint x="503.5" y="575" />
            </Array>
          </mxGeometry>
        </mxCell>
        <mxCell id="v6RUtA155Lo1I2qpHWUi-114" value="USB" style="text;whiteSpace=wrap;html=1;rotation=-90;" vertex="1" parent="1">
          <mxGeometry x="510" y="570" width="29" height="29" as="geometry" />
        </mxCell>
        <mxCell id="v6RUtA155Lo1I2qpHWUi-115" value="&lt;p style=&quot;margin: 0px ; margin-top: 4px ; text-align: center ; text-decoration: underline&quot;&gt;&lt;strong&gt;&lt;strong&gt;Fonction 7&lt;/strong&gt;&lt;br&gt;&lt;/strong&gt;&lt;/p&gt;&lt;hr&gt;GPS&lt;br&gt;differentiel&lt;br&gt;&lt;div&gt;&lt;br&gt;&lt;/div&gt;" style="verticalAlign=middle;align=center;overflow=fill;fontSize=12;fontFamily=Helvetica;html=1;rounded=1;fontStyle=1;strokeWidth=3;fillColor=#E6FFCC" vertex="1" parent="1">
          <mxGeometry x="629" y="740" width="110" height="90" as="geometry" />
        </mxCell>
        <mxCell id="v6RUtA155Lo1I2qpHWUi-116" value="&lt;p style=&quot;margin: 0px ; margin-top: 4px ; text-align: center ; text-decoration: underline&quot;&gt;&lt;strong&gt;&lt;strong&gt;Fonction 8&lt;/strong&gt;&lt;br&gt;&lt;/strong&gt;&lt;/p&gt;&lt;hr&gt;&lt;div&gt;&lt;br&gt;&lt;/div&gt;&lt;div&gt;Camera&lt;/div&gt;" style="verticalAlign=middle;align=center;overflow=fill;fontSize=12;fontFamily=Helvetica;html=1;rounded=1;fontStyle=1;strokeWidth=3;fillColor=#E6FFCC" vertex="1" parent="1">
          <mxGeometry x="629" y="860" width="110" height="90" as="geometry" />
        </mxCell>
        <mxCell id="v6RUtA155Lo1I2qpHWUi-119" value="" style="edgeStyle=elbowEdgeStyle;elbow=horizontal;strokeColor=#990000;strokeWidth=2;entryX=0;entryY=0.5;entryDx=0;entryDy=0;exitX=1;exitY=0.75;exitDx=0;exitDy=0;" edge="1" parent="1" source="12" target="v6RUtA155Lo1I2qpHWUi-115">
          <mxGeometry width="100" height="100" relative="1" as="geometry">
            <mxPoint x="579" y="627" as="sourcePoint" />
            <mxPoint x="599" y="690" as="targetPoint" />
            <Array as="points">
              <mxPoint x="609" y="710" />
            </Array>
          </mxGeometry>
        </mxCell>
        <mxCell id="v6RUtA155Lo1I2qpHWUi-120" value="" style="elbow=horizontal;strokeColor=#990000;strokeWidth=2;exitX=0.75;exitY=1;exitDx=0;exitDy=0;entryX=0;entryY=0.5;entryDx=0;entryDy=0;edgeStyle=orthogonalEdgeStyle;" edge="1" parent="1" source="12" target="v6RUtA155Lo1I2qpHWUi-116">
          <mxGeometry width="100" height="100" relative="1" as="geometry">
            <mxPoint x="585" y="660" as="sourcePoint" />
            <mxPoint x="585" y="710" as="targetPoint" />
            <Array as="points">
              <mxPoint x="527" y="720" />
              <mxPoint x="559" y="720" />
              <mxPoint x="559" y="905" />
            </Array>
          </mxGeometry>
        </mxCell>
        <mxCell id="v6RUtA155Lo1I2qpHWUi-121" value="USB" style="text;whiteSpace=wrap;html=1;rotation=0;" vertex="1" parent="1">
          <mxGeometry x="559" y="661" width="29" height="29" as="geometry" />
        </mxCell>
        <mxCell id="v6RUtA155Lo1I2qpHWUi-122" value="USB" style="text;whiteSpace=wrap;html=1;rotation=-90;" vertex="1" parent="1">
          <mxGeometry x="500" y="690" width="29" height="29" as="geometry" />
        </mxCell>
        <mxCell id="v6RUtA155Lo1I2qpHWUi-125" value="" style="edgeStyle=elbowEdgeStyle;elbow=horizontal;strokeColor=#990000;strokeWidth=2;entryX=0.5;entryY=1;entryDx=0;entryDy=0;exitX=0.836;exitY=0.001;exitDx=0;exitDy=0;exitPerimeter=0;" edge="1" parent="1" source="5" target="3">
          <mxGeometry width="100" height="100" relative="1" as="geometry">
            <mxPoint x="533.5" y="476" as="sourcePoint" />
            <mxPoint x="533.5" y="426" as="targetPoint" />
          </mxGeometry>
        </mxCell>
        <mxCell id="v6RUtA155Lo1I2qpHWUi-126" value="&lt;div&gt;ETH&lt;/div&gt;" style="text;whiteSpace=wrap;html=1;rotation=-90;" vertex="1" parent="1">
          <mxGeometry x="539" y="442" width="29" height="29" as="geometry" />
        </mxCell>
        <mxCell id="v6RUtA155Lo1I2qpHWUi-127" value="" style="edgeStyle=elbowEdgeStyle;elbow=horizontal;strokeColor=#990000;strokeWidth=2;entryX=0.422;entryY=1.016;entryDx=0;entryDy=0;exitX=0.167;exitY=-0.045;exitDx=0;exitDy=0;exitPerimeter=0;entryPerimeter=0;" edge="1" parent="1" source="3" target="6">
          <mxGeometry width="100" height="100" relative="1" as="geometry">
            <mxPoint x="504.0599999999996" y="351.04999999999995" as="sourcePoint" />
            <mxPoint x="503.65999999999997" y="280" as="targetPoint" />
          </mxGeometry>
        </mxCell>
        <mxCell id="v6RUtA155Lo1I2qpHWUi-129" value="" style="strokeColor=#990000;strokeWidth=2;exitX=0.75;exitY=0;exitDx=0;exitDy=0;entryX=0.5;entryY=1;entryDx=0;entryDy=0;edgeStyle=orthogonalEdgeStyle;" edge="1" parent="1" source="3" target="8">
          <mxGeometry width="100" height="100" relative="1" as="geometry">
            <mxPoint x="680" y="290" as="sourcePoint" />
            <mxPoint x="639.9999999999998" y="350" as="targetPoint" />
          </mxGeometry>
        </mxCell>
        <mxCell id="v6RUtA155Lo1I2qpHWUi-130" value="&lt;div&gt;ETH&lt;/div&gt;" style="text;whiteSpace=wrap;html=1;rotation=-90;" vertex="1" parent="1">
          <mxGeometry x="501.5" y="320" width="29" height="29" as="geometry" />
        </mxCell>
        <mxCell id="v6RUtA155Lo1I2qpHWUi-132" value="&lt;div&gt;ETH&lt;/div&gt;" style="text;whiteSpace=wrap;html=1;rotation=-90;" vertex="1" parent="1">
          <mxGeometry x="559" y="320" width="29" height="29" as="geometry" />
        </mxCell>
        <mxCell id="v6RUtA155Lo1I2qpHWUi-134" value="&lt;b&gt;Joystick&lt;/b&gt;" style="ellipse;whiteSpace=wrap;html=1;fillColor=#dae8fc;strokeWidth=3;" vertex="1" parent="1">
          <mxGeometry x="392" y="990" width="67" height="60" as="geometry" />
        </mxCell>
        <mxCell id="v6RUtA155Lo1I2qpHWUi-135" value="&lt;div&gt;&lt;b&gt;Arrêt&lt;/b&gt;&lt;/div&gt;&lt;div&gt;&lt;b&gt;d&#39;urgence&lt;/b&gt;&lt;/div&gt;" style="ellipse;whiteSpace=wrap;html=1;fillColor=#dae8fc;strokeWidth=3;" vertex="1" parent="1">
          <mxGeometry x="492" y="990" width="67" height="60" as="geometry" />
        </mxCell>
        <mxCell id="v6RUtA155Lo1I2qpHWUi-136" value="" style="endArrow=none;dashed=1;html=1;entryX=0.25;entryY=1;entryDx=0;entryDy=0;exitX=0.5;exitY=0;exitDx=0;exitDy=0;" edge="1" parent="1" source="v6RUtA155Lo1I2qpHWUi-134" target="v6RUtA155Lo1I2qpHWUi-106">
          <mxGeometry width="50" height="50" relative="1" as="geometry">
            <mxPoint x="362" y="1000" as="sourcePoint" />
            <mxPoint x="412" y="950" as="targetPoint" />
          </mxGeometry>
        </mxCell>
        <mxCell id="v6RUtA155Lo1I2qpHWUi-137" value="" style="endArrow=none;dashed=1;html=1;entryX=0.75;entryY=1;entryDx=0;entryDy=0;exitX=0.5;exitY=0;exitDx=0;exitDy=0;" edge="1" parent="1" source="v6RUtA155Lo1I2qpHWUi-135" target="v6RUtA155Lo1I2qpHWUi-106">
          <mxGeometry width="50" height="50" relative="1" as="geometry">
            <mxPoint x="460" y="1010" as="sourcePoint" />
            <mxPoint x="510" y="960" as="targetPoint" />
          </mxGeometry>
        </mxCell>
        <mxCell id="v6RUtA155Lo1I2qpHWUi-138" value="&lt;b&gt;Camera&lt;br&gt;RPI&lt;/b&gt;" style="ellipse;whiteSpace=wrap;html=1;fillColor=#dae8fc;strokeWidth=3;" vertex="1" parent="1">
          <mxGeometry x="637" y="60" width="67" height="60" as="geometry" />
        </mxCell>
        <mxCell id="v6RUtA155Lo1I2qpHWUi-139" value="" style="endArrow=none;dashed=1;html=1;entryX=0.5;entryY=1;entryDx=0;entryDy=0;exitX=0.5;exitY=0;exitDx=0;exitDy=0;" edge="1" parent="1" source="8" target="v6RUtA155Lo1I2qpHWUi-138">
          <mxGeometry width="50" height="50" relative="1" as="geometry">
            <mxPoint x="609" y="190" as="sourcePoint" />
            <mxPoint x="659" y="140" as="targetPoint" />
          </mxGeometry>
        </mxCell>
        <mxCell id="v6RUtA155Lo1I2qpHWUi-141" value="&lt;p style=&quot;margin: 0px ; margin-top: 4px ; text-align: center ; text-decoration: underline&quot;&gt;&lt;strong&gt;&lt;strong&gt;Fonction 6&lt;/strong&gt;&lt;br&gt;&lt;/strong&gt;&lt;/p&gt;&lt;hr&gt;&lt;div&gt;Dongle XBOX&lt;/div&gt;Manette XBOX&lt;br&gt;&lt;div&gt;&lt;br&gt;&lt;/div&gt;" style="verticalAlign=middle;align=center;overflow=fill;fontSize=12;fontFamily=Helvetica;html=1;rounded=1;fontStyle=1;strokeWidth=3;fillColor=#E6FFCC" vertex="1" parent="1">
          <mxGeometry x="629" y="590" width="110" height="90" as="geometry" />
        </mxCell>
        <mxCell id="v6RUtA155Lo1I2qpHWUi-142" value="" style="edgeStyle=elbowEdgeStyle;elbow=horizontal;strokeColor=#990000;strokeWidth=2;entryX=0;entryY=0.5;entryDx=0;entryDy=0;exitX=1;exitY=0.25;exitDx=0;exitDy=0;" edge="1" parent="1" source="12" target="v6RUtA155Lo1I2qpHWUi-141">
          <mxGeometry width="100" height="100" relative="1" as="geometry">
            <mxPoint x="559" y="675" as="sourcePoint" />
            <mxPoint x="639" y="795" as="targetPoint" />
            <Array as="points">
              <mxPoint x="589" y="650" />
            </Array>
          </mxGeometry>
        </mxCell>
        <mxCell id="v6RUtA155Lo1I2qpHWUi-143" value="USB" style="text;whiteSpace=wrap;html=1;rotation=0;" vertex="1" parent="1">
          <mxGeometry x="559" y="610" width="29" height="29" as="geometry" />
        </mxCell>
        <mxCell id="v6RUtA155Lo1I2qpHWUi-144" value="WiFi" style="whiteSpace=wrap;align=center;verticalAlign=middle;fontStyle=1;strokeWidth=3;fillColor=#FFFFCC" vertex="1" parent="1">
          <mxGeometry x="260" y="360" width="90" height="60" as="geometry" />
        </mxCell>
        <mxCell id="v6RUtA155Lo1I2qpHWUi-145" value="" style="edgeStyle=elbowEdgeStyle;elbow=horizontal;strokeColor=#990000;strokeWidth=2;entryX=0.5;entryY=1;entryDx=0;entryDy=0;exitX=0.836;exitY=0.001;exitDx=0;exitDy=0;exitPerimeter=0;" edge="1" parent="1">
          <mxGeometry width="100" height="100" relative="1" as="geometry">
            <mxPoint x="304.9000000000001" y="491.00000000000017" as="sourcePoint" />
            <mxPoint x="304.5" y="419.95" as="targetPoint" />
          </mxGeometry>
        </mxCell>
        <mxCell id="v6RUtA155Lo1I2qpHWUi-146" value="PC portable &#xa;(sol)" style="shape=process;whiteSpace=wrap;align=center;verticalAlign=middle;size=0.0475;fontStyle=1;strokeWidth=3;fillColor=#FFCCCC" vertex="1" parent="1">
          <mxGeometry x="39.999999999999915" y="60" width="400" height="50" as="geometry" />
        </mxCell>
        <mxCell id="v6RUtA155Lo1I2qpHWUi-147" value="WiFi" style="whiteSpace=wrap;align=center;verticalAlign=middle;fontStyle=1;strokeWidth=3;fillColor=#FFFFCC" vertex="1" parent="1">
          <mxGeometry x="195" y="160" width="90" height="60" as="geometry" />
        </mxCell>
        <mxCell id="v6RUtA155Lo1I2qpHWUi-148" value="" style="edgeStyle=elbowEdgeStyle;elbow=horizontal;strokeColor=#990000;strokeWidth=2;entryX=0.5;entryY=0;entryDx=0;entryDy=0;exitX=0.5;exitY=1;exitDx=0;exitDy=0;" edge="1" parent="1" source="v6RUtA155Lo1I2qpHWUi-146" target="v6RUtA155Lo1I2qpHWUi-147">
          <mxGeometry width="100" height="100" relative="1" as="geometry">
            <mxPoint x="250" y="120" as="sourcePoint" />
            <mxPoint x="260" y="140" as="targetPoint" />
            <Array as="points">
              <mxPoint x="239.5" y="144" />
            </Array>
          </mxGeometry>
        </mxCell>
        <mxCell id="v6RUtA155Lo1I2qpHWUi-150" value="" style="endArrow=none;dashed=1;html=1;dashPattern=1 3;strokeWidth=2;entryX=0.5;entryY=1;entryDx=0;entryDy=0;exitX=0.5;exitY=0;exitDx=0;exitDy=0;" edge="1" parent="1" source="v6RUtA155Lo1I2qpHWUi-144" target="v6RUtA155Lo1I2qpHWUi-147">
          <mxGeometry width="50" height="50" relative="1" as="geometry">
            <mxPoint x="300" y="380" as="sourcePoint" />
            <mxPoint x="350" y="330" as="targetPoint" />
          </mxGeometry>
        </mxCell>
        <mxCell id="v6RUtA155Lo1I2qpHWUi-151" value="Prise de controle&lt;br&gt;Monitoring&lt;br&gt;Debug" style="text;whiteSpace=wrap;html=1;rotation=0;" vertex="1" parent="1">
          <mxGeometry x="289" y="250" width="121" height="70" as="geometry" />
        </mxCell>
      </root>
    </mxGraphModel>
  </diagram>
</mxfile>
